<svg xmlns="http://www.w3.org/2000/svg" viewBox="0 0 1023 1024.1">
    <g>
        <path
            d="M478,.8c-2.2.2-9.2.9-15.5,1.4C317.2,15.3,181.1,93.7,94.9,214.2c-48,67-78.7,143-90.3,223.5C.5,465.8,0,474.1,0,512.2s.5,46.4,4.6,74.5C32.4,778.8,169.1,940.2,354.5,1000c33.2,10.7,68.2,18,108,22.4,15.5,1.7,82.5,1.7,98,0,68.7-7.6,126.9-24.6,184.3-53.9,8.8-4.5,10.5-5.7,9.3-6.7-.8-.6-38.3-50.9-83.3-111.7L589,739.6,486.5,587.9c-56.4-83.4-102.8-151.6-103.2-151.6s-.8,67.3-1,149.6c-.3,144.1-.4,149.9-2.2,153.3-2.6,4.9-4.6,6.9-8.8,9.1-3.2,1.6-6,1.9-21.1,1.9H332.9l-4.6-2.9a18.7,18.7,0,0,1-6.7-7.3l-2.1-4.5.2-200.5.3-200.6,3.1-3.9a27.43,27.43,0,0,1,7.4-6.1c4.1-2,5.7-2.2,23-2.2,20.4,0,23.8.8,29.1,6.6,1.5,1.6,57,85.2,123.4,185.9S663.2,752.9,707.8,820.4l81,122.7,4.1-2.7c36.3-23.6,74.7-57.2,105.1-92.2a509.23,509.23,0,0,0,120.4-261.5c4.1-28.1,4.6-36.4,4.6-74.5s-.5-46.4-4.6-74.5C990.6,245.6,853.9,84.2,668.5,24.4,635.8,13.8,601,6.5,562,2.1c-9.6-1-75.7-2.1-84-1.3ZM687.4,310.2A20.18,20.18,0,0,1,697.5,322c.8,2.6,1,58.2.8,183.5L698,685.3l-31.7-48.6-31.8-48.6V457.4c0-84.5.4-132,1-134.3a20.4,20.4,0,0,1,9.9-12.6c4.1-2.1,5.6-2.3,21.3-2.3,14.8,0,17.4.2,20.7,2Z"
            fill="#10b981"
        />

        <path
            d="M783.8,945.3c-3.5,2.2-4.6,3.7-1.5,2,2.2-1.3,5.8-4,5.2-4.1A20.59,20.59,0,0,0,783.8,945.3Zm-6.9,4.5c-1.8,1.4-1.8,1.5.4.4a6.12,6.12,0,0,0,2.2-1.5c0-.8-.5-.6-2.6,1.1Zm-5,3c-1.8,1.4-1.8,1.5.4.4a6.12,6.12,0,0,0,2.2-1.5c0-.8-.5-.6-2.6,1.1Zm-5,3c-1.8,1.4-1.8,1.5.4.4a6.12,6.12,0,0,0,2.2-1.5c0-.8-.5-.6-2.6,1.1Zm-7.6,4c-3.8,2-3.6,2.8.2.9a10.42,10.42,0,0,0,3-2C762.5,958,762.4,958.1,759.3,959.8Z"
            fill="#10b981"
        />
    </g>
</svg>